<svg width="166" height="19" viewBox="0 0 166 19" fill="none" xmlns="http://www.w3.org/2000/svg">
<path d="M10.2217 0.751521H14.897C15.1533 0.751521 15.2754 0.87359 15.2754 1.12994V17.6461C15.2754 17.878 15.1533 18.0001 14.897 18.0001H10.2217C10.0264 18.0001 9.87988 17.8292 9.87988 17.6461V12.0553H6.37646V17.6461C6.37646 17.878 6.25439 18.0001 5.99805 18.0001H1.32275C1.16406 18.0001 0.980957 17.8292 0.980957 17.6461V1.12994C0.980957 0.934625 1.16406 0.739314 1.32275 0.751521H5.99805C6.25439 0.751521 6.37646 0.87359 6.37646 1.12994V7.6485H9.87988V1.12994C9.86768 0.87359 9.98975 0.751521 10.2217 0.751521Z" fill="black"/>
<path d="M33.5615 18H28.6055C28.3491 18 28.1782 17.8901 28.0806 17.6704L27.3359 15.0459H22.6362L21.8794 17.6704C21.7817 17.8901 21.6108 18 21.3545 18H16.4106C16.2153 18 16.1177 17.8535 16.1787 17.6704L21.8306 1.08105C21.9282 0.861328 22.1235 0.751465 22.4287 0.751465H27.5312C27.8364 0.751465 28.0317 0.861328 28.1294 1.08105L33.7812 17.6704C33.8423 17.8291 33.7568 18 33.5615 18ZM23.6372 11.4692H26.335L24.98 6.7207L23.6372 11.4692Z" fill="black"/>
<path d="M41.9111 18.3784C36.7476 18.3784 33.3174 14.7651 33.3174 9.36963C33.3174 3.97412 36.7476 0.373047 41.9111 0.373047C43.8643 0.373047 45.6221 0.861328 47.1724 1.82568C47.4043 1.93555 47.4775 2.09424 47.3921 2.27734L45.7441 5.74414C45.6465 5.97607 45.4878 6.04932 45.2681 5.95166C44.4502 5.48779 43.4858 5.25586 42.3628 5.25586C40.1045 5.25586 38.6152 6.90381 38.6152 9.36963C38.6152 11.8354 40.1045 13.4956 42.3506 13.4956C43.4736 13.4956 44.4502 13.2637 45.2681 12.7998C45.4878 12.6899 45.6465 12.7632 45.7441 12.9951L47.3921 16.4741C47.4775 16.6572 47.4043 16.8159 47.1724 16.9258C45.6221 17.8901 43.8765 18.3784 41.9111 18.3784Z" fill="black"/>
<path d="M63.3833 18H57.585C57.353 18 57.1699 17.9023 57.0601 17.6948L53.9595 11.4448V17.646C53.9595 17.8779 53.8374 18 53.5811 18H49.1499C48.9912 18 48.8081 17.8291 48.8081 17.646V1.12992C48.8081 0.93461 48.9912 0.739299 49.1499 0.751506H53.5811C53.8374 0.751506 53.9595 0.873575 53.9595 1.12992V6.72074L56.9502 1.04447C57.0601 0.836955 57.2554 0.739299 57.5239 0.751506H63.0049C63.2368 0.751506 63.2979 0.849162 63.1758 1.04447L58.2319 8.97904L63.5542 17.6948C63.6885 17.8413 63.5786 18 63.3833 18Z" fill="black"/>
<path d="M69.6577 11.3716V13.4956H76.4814C76.7378 13.4956 76.8599 13.6055 76.8477 13.8252V17.646C76.8477 17.8047 76.6768 18 76.4814 18H64.8481C64.6406 18 64.5186 17.8779 64.4575 17.6216V1.10547C64.4575 0.873535 64.5674 0.751465 64.7993 0.751465H76.1763C76.4082 0.751465 76.5791 0.922363 76.5791 1.10547V4.87744C76.5791 5.13379 76.4448 5.25586 76.1763 5.25586H69.6577V7.22119H74.9556C75.1509 7.22119 75.3096 7.39209 75.2729 7.55078L74.9312 11.0542C74.8945 11.2739 74.7603 11.3838 74.5039 11.3716H69.6577Z" fill="black"/>
<path d="M92.2529 18.0001H86.894C86.6255 18.0001 86.4302 17.8658 86.3203 17.5973L83.7202 12.1529H83.4272V17.6461C83.4272 17.7926 83.2319 18.0001 83.0244 18.0001H78.6177C78.4224 18.0001 78.2515 17.8292 78.2515 17.6461V1.12994C78.2515 0.934625 78.4224 0.739314 78.6177 0.751521H85.2217C89.0913 0.751521 91.6182 2.99762 91.6182 6.40338C91.6182 8.39313 90.3975 10.3829 88.5542 11.1764L92.5215 17.5973C92.6558 17.8048 92.4849 18.0001 92.2529 18.0001ZM83.4272 5.25592V7.90485H84.8921C85.7588 7.90485 86.3203 7.36774 86.3203 6.57428C86.3203 5.78082 85.7588 5.24371 84.8921 5.25592H83.4272Z" fill="black"/>
<path d="M103.41 0.751465H107.829C108.085 0.751465 108.208 0.873535 108.208 1.12988V17.646C108.208 17.8779 108.085 18 107.829 18H103.508C103.288 18 103.117 17.8901 102.983 17.6704L98.6372 9.89453V17.646C98.6372 17.8779 98.5151 18 98.2588 18H93.8276C93.6323 18 93.4858 17.8291 93.4858 17.646V1.12988C93.4858 0.873535 93.5957 0.751465 93.8276 0.751465H98.1611C98.4419 0.751465 98.6372 0.861328 98.7349 1.08105L103.056 8.84473V1.12988C103.056 0.93457 103.251 0.751465 103.41 0.751465Z" fill="black"/>
<path d="M115.166 11.3716V13.4956H121.989C122.246 13.4956 122.368 13.6055 122.355 13.8252V17.646C122.355 17.8047 122.185 18 121.989 18H110.356C110.148 18 110.026 17.8779 109.965 17.6216V1.10547C109.965 0.873535 110.075 0.751465 110.307 0.751465H121.684C121.916 0.751465 122.087 0.922363 122.087 1.10547V4.87744C122.087 5.13379 121.953 5.25586 121.684 5.25586H115.166V7.22119H120.463C120.659 7.22119 120.817 7.39209 120.781 7.55078L120.439 11.0542C120.402 11.2739 120.268 11.3838 120.012 11.3716H115.166Z" fill="black"/>
<path d="M141.325 0.751465H146.928C147.16 0.751465 147.319 0.93457 147.233 1.17871L142.68 17.5972C142.595 17.8657 142.412 18 142.131 18H137.785C137.468 18 137.272 17.8657 137.211 17.5972L134.929 8.7959L132.658 17.5972C132.597 17.8657 132.402 18 132.084 18H127.727C127.446 18 127.263 17.8657 127.177 17.5972L122.636 1.17871C122.575 0.946777 122.697 0.763672 122.929 0.751465H128.532C128.85 0.751465 129.045 0.897949 129.106 1.17871L130.534 8.64941L132.451 1.17871C132.536 0.897949 132.756 0.751465 133.134 0.751465H136.735C137.102 0.751465 137.321 0.897949 137.407 1.17871L139.335 8.64941L140.751 1.17871C140.812 0.897949 141.008 0.751465 141.325 0.751465Z" fill="black"/>
<path d="M147.502 5.95166C147.502 2.61914 150.017 0.373047 153.825 0.373047C155.595 0.373047 157.866 1.10547 159.428 2.17969C159.66 2.32617 159.733 2.47266 159.624 2.61914L158.049 6.14697C157.963 6.41553 157.817 6.48877 157.597 6.35449C156.23 5.57324 155.058 5.13379 154.082 5.04834C153.312 5.06055 152.8 5.42676 152.8 5.91504C152.8 6.34229 153.41 6.76953 154.631 7.17236C155.852 7.5752 156.987 8.16113 158.037 8.93018C159.099 9.69922 159.88 11.103 159.88 12.8242C159.892 16.1567 157.292 18.3784 153.447 18.3784C151.347 18.3784 149.125 17.7192 147.905 16.7305C147.685 16.5596 147.612 16.4131 147.697 16.2788L149.272 12.751C149.357 12.4824 149.504 12.4214 149.724 12.5557C150.993 13.2759 152.153 13.6665 153.203 13.752C153.996 13.752 154.521 13.3369 154.521 12.8486C154.509 12.4214 153.898 11.9941 152.678 11.5669C151.457 11.1519 150.334 10.5659 149.321 9.82129C148.295 9.05225 147.502 7.64844 147.502 5.95166Z" fill="black"/>
<path d="M163.151 18.354C161.955 18.354 161.015 17.5239 161.015 16.291C161.015 15.0337 161.955 14.2036 163.151 14.2036C164.348 14.2036 165.288 15.0337 165.288 16.291C165.288 17.5239 164.348 18.354 163.151 18.354Z" fill="black"/>
</svg>
